<svg width="517" height="282" viewBox="0 0 517 282" fill="none" xmlns="http://www.w3.org/2000/svg">
<rect width="517" height="282" fill="#1E1E1E"/>
<rect width="517" height="282" rx="20" fill="#202024"/>
<path d="M419.152 59H415.027V47.3636H419.186C420.357 47.3636 421.364 47.5966 422.209 48.0625C423.054 48.5246 423.703 49.1894 424.158 50.0568C424.616 50.9242 424.845 51.9621 424.845 53.1705C424.845 54.3826 424.616 55.4242 424.158 56.2955C423.703 57.1667 423.05 57.8352 422.197 58.3011C421.349 58.767 420.334 59 419.152 59ZM417.487 56.892H419.05C419.777 56.892 420.389 56.7633 420.885 56.5057C421.385 56.2443 421.76 55.8409 422.01 55.2955C422.264 54.7462 422.391 54.0379 422.391 53.1705C422.391 52.3106 422.264 51.608 422.01 51.0625C421.76 50.517 421.387 50.1155 420.891 49.858C420.394 49.6004 419.783 49.4716 419.055 49.4716H417.487V56.892ZM430.565 59.1705C429.683 59.1705 428.92 58.983 428.276 58.608C427.635 58.2292 427.141 57.7027 426.793 57.0284C426.444 56.3504 426.27 55.5644 426.27 54.6705C426.27 53.7689 426.444 52.9811 426.793 52.3068C427.141 51.6288 427.635 51.1023 428.276 50.7273C428.92 50.3485 429.683 50.1591 430.565 50.1591C431.448 50.1591 432.209 50.3485 432.849 50.7273C433.493 51.1023 433.99 51.6288 434.338 52.3068C434.687 52.9811 434.861 53.7689 434.861 54.6705C434.861 55.5644 434.687 56.3504 434.338 57.0284C433.99 57.7027 433.493 58.2292 432.849 58.608C432.209 58.983 431.448 59.1705 430.565 59.1705ZM430.577 57.2955C430.978 57.2955 431.313 57.1818 431.582 56.9545C431.851 56.7235 432.054 56.4091 432.19 56.0114C432.33 55.6136 432.401 55.161 432.401 54.6534C432.401 54.1458 432.33 53.6932 432.19 53.2955C432.054 52.8977 431.851 52.5833 431.582 52.3523C431.313 52.1212 430.978 52.0057 430.577 52.0057C430.171 52.0057 429.83 52.1212 429.554 52.3523C429.281 52.5833 429.075 52.8977 428.935 53.2955C428.798 53.6932 428.73 54.1458 428.73 54.6534C428.73 55.161 428.798 55.6136 428.935 56.0114C429.075 56.4091 429.281 56.7235 429.554 56.9545C429.83 57.1818 430.171 57.2955 430.577 57.2955ZM438.855 53.9545V59H436.435V50.2727H438.741V51.8125H438.844C439.037 51.3049 439.361 50.9034 439.815 50.608C440.27 50.3087 440.821 50.1591 441.469 50.1591C442.075 50.1591 442.603 50.2917 443.054 50.5568C443.505 50.822 443.855 51.2008 444.105 51.6932C444.355 52.1818 444.48 52.7652 444.48 53.4432V59H442.06V53.875C442.063 53.3409 441.927 52.9242 441.651 52.625C441.374 52.322 440.993 52.1705 440.509 52.1705C440.183 52.1705 439.895 52.2405 439.645 52.3807C439.399 52.5208 439.205 52.7254 439.065 52.9943C438.929 53.2595 438.859 53.5795 438.855 53.9545ZM450.365 59.1705C449.467 59.1705 448.695 58.9886 448.047 58.625C447.403 58.2576 446.907 57.7386 446.558 57.0682C446.21 56.3939 446.036 55.5966 446.036 54.6761C446.036 53.7784 446.21 52.9905 446.558 52.3125C446.907 51.6345 447.397 51.1061 448.03 50.7273C448.666 50.3485 449.412 50.1591 450.268 50.1591C450.844 50.1591 451.38 50.2519 451.876 50.4375C452.376 50.6193 452.812 50.8939 453.183 51.2614C453.558 51.6288 453.85 52.0909 454.058 52.6477C454.267 53.2008 454.371 53.8485 454.371 54.5909V55.2557H447.001V53.7557H452.092C452.092 53.4072 452.017 53.0985 451.865 52.8295C451.714 52.5606 451.503 52.3504 451.234 52.1989C450.969 52.0436 450.661 51.9659 450.308 51.9659C449.941 51.9659 449.615 52.0511 449.331 52.2216C449.051 52.3883 448.831 52.6136 448.672 52.8977C448.513 53.178 448.431 53.4905 448.428 53.8352V55.2614C448.428 55.6932 448.507 56.0663 448.666 56.3807C448.829 56.6951 449.058 56.9375 449.354 57.108C449.649 57.2784 450 57.3636 450.405 57.3636C450.674 57.3636 450.92 57.3258 451.143 57.25C451.367 57.1742 451.558 57.0606 451.717 56.9091C451.876 56.7576 451.998 56.572 452.081 56.3523L454.32 56.5C454.206 57.0379 453.973 57.5076 453.621 57.9091C453.272 58.3068 452.821 58.6174 452.268 58.8409C451.719 59.0606 451.085 59.1705 450.365 59.1705Z" fill="white"/>
<path d="M217.964 48.3636V60H215.504V48.3636H217.964ZM222.363 54.9545V60H219.942V51.2727H222.249V52.8125H222.352C222.545 52.3049 222.869 51.9034 223.323 51.608C223.778 51.3087 224.329 51.1591 224.977 51.1591C225.583 51.1591 226.111 51.2917 226.562 51.5568C227.013 51.822 227.363 52.2008 227.613 52.6932C227.863 53.1818 227.988 53.7652 227.988 54.4432V60H225.567V54.875C225.571 54.3409 225.435 53.9242 225.158 53.625C224.882 53.322 224.501 53.1705 224.016 53.1705C223.691 53.1705 223.403 53.2405 223.153 53.3807C222.906 53.5208 222.713 53.7254 222.573 53.9943C222.437 54.2595 222.367 54.5795 222.363 54.9545ZM233.599 63.2727V51.2727H235.985V52.7386H236.093C236.199 52.5038 236.353 52.2652 236.553 52.0227C236.758 51.7765 237.023 51.572 237.349 51.4091C237.678 51.2424 238.087 51.1591 238.576 51.1591C239.212 51.1591 239.799 51.3258 240.337 51.6591C240.875 51.9886 241.305 52.4867 241.627 53.1534C241.949 53.8163 242.11 54.6477 242.11 55.6477C242.11 56.6212 241.953 57.4432 241.638 58.1136C241.328 58.7803 240.904 59.286 240.366 59.6307C239.832 59.9716 239.233 60.142 238.57 60.142C238.101 60.142 237.701 60.0644 237.371 59.9091C237.046 59.7538 236.779 59.5587 236.57 59.3239C236.362 59.0852 236.203 58.8447 236.093 58.6023H236.019V63.2727H233.599ZM235.968 55.6364C235.968 56.1553 236.04 56.608 236.184 56.9943C236.328 57.3807 236.536 57.6818 236.809 57.8977C237.082 58.1098 237.413 58.2159 237.803 58.2159C238.197 58.2159 238.531 58.108 238.803 57.892C239.076 57.6723 239.282 57.3693 239.423 56.983C239.567 56.5928 239.638 56.1439 239.638 55.6364C239.638 55.1326 239.568 54.6894 239.428 54.3068C239.288 53.9242 239.082 53.625 238.809 53.4091C238.536 53.1932 238.201 53.0852 237.803 53.0852C237.409 53.0852 237.076 53.1894 236.803 53.3977C236.534 53.6061 236.328 53.9015 236.184 54.2841C236.04 54.6667 235.968 55.1174 235.968 55.6364ZM243.724 60V51.2727H246.07V52.7955H246.161C246.32 52.2538 246.587 51.8447 246.962 51.5682C247.337 51.2879 247.769 51.1477 248.258 51.1477C248.379 51.1477 248.51 51.1553 248.65 51.1705C248.79 51.1856 248.913 51.2064 249.019 51.233V53.3807C248.906 53.3466 248.748 53.3163 248.548 53.2898C248.347 53.2633 248.163 53.25 247.996 53.25C247.64 53.25 247.322 53.3277 247.042 53.483C246.765 53.6345 246.546 53.8466 246.383 54.1193C246.224 54.392 246.144 54.7064 246.144 55.0625V60H243.724ZM253.808 60.1705C252.925 60.1705 252.162 59.983 251.518 59.608C250.878 59.2292 250.383 58.7027 250.035 58.0284C249.686 57.3504 249.512 56.5644 249.512 55.6705C249.512 54.7689 249.686 53.9811 250.035 53.3068C250.383 52.6288 250.878 52.1023 251.518 51.7273C252.162 51.3485 252.925 51.1591 253.808 51.1591C254.69 51.1591 255.451 51.3485 256.092 51.7273C256.736 52.1023 257.232 52.6288 257.58 53.3068C257.929 53.9811 258.103 54.7689 258.103 55.6705C258.103 56.5644 257.929 57.3504 257.58 58.0284C257.232 58.7027 256.736 59.2292 256.092 59.608C255.451 59.983 254.69 60.1705 253.808 60.1705ZM253.819 58.2955C254.22 58.2955 254.556 58.1818 254.825 57.9545C255.094 57.7235 255.296 57.4091 255.433 57.0114C255.573 56.6136 255.643 56.161 255.643 55.6534C255.643 55.1458 255.573 54.6932 255.433 54.2955C255.296 53.8977 255.094 53.5833 254.825 53.3523C254.556 53.1212 254.22 53.0057 253.819 53.0057C253.414 53.0057 253.073 53.1212 252.796 53.3523C252.523 53.5833 252.317 53.8977 252.177 54.2955C252.04 54.6932 251.972 55.1458 251.972 55.6534C251.972 56.161 252.04 56.6136 252.177 57.0114C252.317 57.4091 252.523 57.7235 252.796 57.9545C253.073 58.1818 253.414 58.2955 253.819 58.2955ZM263.609 63.4545C262.825 63.4545 262.152 63.3466 261.592 63.1307C261.035 62.9186 260.592 62.6288 260.262 62.2614C259.933 61.8939 259.719 61.4811 259.62 61.0227L261.859 60.7216C261.927 60.8958 262.035 61.0587 262.183 61.2102C262.33 61.3617 262.525 61.483 262.768 61.5739C263.014 61.6686 263.313 61.7159 263.665 61.7159C264.192 61.7159 264.626 61.5871 264.967 61.3295C265.311 61.0758 265.484 60.6496 265.484 60.0511V58.4545H265.381C265.275 58.697 265.116 58.9261 264.904 59.142C264.692 59.358 264.419 59.5341 264.086 59.6705C263.753 59.8068 263.355 59.875 262.893 59.875C262.237 59.875 261.641 59.7235 261.103 59.4205C260.569 59.1136 260.143 58.6458 259.825 58.017C259.51 57.3845 259.353 56.5852 259.353 55.6193C259.353 54.6307 259.514 53.8049 259.836 53.142C260.158 52.4792 260.586 51.983 261.12 51.6534C261.658 51.3239 262.247 51.1591 262.887 51.1591C263.376 51.1591 263.785 51.2424 264.114 51.4091C264.444 51.572 264.709 51.7765 264.91 52.0227C265.114 52.2652 265.272 52.5038 265.381 52.7386H265.472V51.2727H267.876V60.0852C267.876 60.8277 267.694 61.4489 267.33 61.9489C266.967 62.4489 266.463 62.8239 265.819 63.0739C265.179 63.3277 264.442 63.4545 263.609 63.4545ZM263.66 58.0568C264.05 58.0568 264.379 57.9602 264.648 57.767C264.921 57.5701 265.129 57.2898 265.273 56.9261C265.421 56.5587 265.495 56.1193 265.495 55.608C265.495 55.0966 265.423 54.6534 265.279 54.2784C265.135 53.8996 264.927 53.6061 264.654 53.3977C264.381 53.1894 264.05 53.0852 263.66 53.0852C263.262 53.0852 262.927 53.1932 262.654 53.4091C262.381 53.6212 262.175 53.9167 262.035 54.2955C261.895 54.6742 261.825 55.1117 261.825 55.608C261.825 56.1117 261.895 56.5473 262.035 56.9148C262.179 57.2784 262.385 57.5606 262.654 57.7614C262.927 57.9583 263.262 58.0568 263.66 58.0568ZM269.802 60V51.2727H272.148V52.7955H272.239C272.398 52.2538 272.665 51.8447 273.04 51.5682C273.415 51.2879 273.847 51.1477 274.336 51.1477C274.457 51.1477 274.588 51.1553 274.728 51.1705C274.868 51.1856 274.991 51.2064 275.097 51.233V53.3807C274.984 53.3466 274.826 53.3163 274.626 53.2898C274.425 53.2633 274.241 53.25 274.075 53.25C273.719 53.25 273.4 53.3277 273.12 53.483C272.844 53.6345 272.624 53.8466 272.461 54.1193C272.302 54.392 272.222 54.7064 272.222 55.0625V60H269.802ZM279.92 60.1705C279.022 60.1705 278.249 59.9886 277.602 59.625C276.958 59.2576 276.461 58.7386 276.113 58.0682C275.764 57.3939 275.59 56.5966 275.59 55.6761C275.59 54.7784 275.764 53.9905 276.113 53.3125C276.461 52.6345 276.952 52.1061 277.585 51.7273C278.221 51.3485 278.967 51.1591 279.823 51.1591C280.399 51.1591 280.935 51.2519 281.431 51.4375C281.931 51.6193 282.367 51.8939 282.738 52.2614C283.113 52.6288 283.405 53.0909 283.613 53.6477C283.821 54.2008 283.925 54.8485 283.925 55.5909V56.2557H276.556V54.7557H281.647C281.647 54.4072 281.571 54.0985 281.42 53.8295C281.268 53.5606 281.058 53.3504 280.789 53.1989C280.524 53.0436 280.215 52.9659 279.863 52.9659C279.496 52.9659 279.17 53.0511 278.886 53.2216C278.605 53.3883 278.386 53.6136 278.227 53.8977C278.067 54.178 277.986 54.4905 277.982 54.8352V56.2614C277.982 56.6932 278.062 57.0663 278.221 57.3807C278.384 57.6951 278.613 57.9375 278.908 58.108C279.204 58.2784 279.554 58.3636 279.96 58.3636C280.228 58.3636 280.475 58.3258 280.698 58.25C280.922 58.1742 281.113 58.0606 281.272 57.9091C281.431 57.7576 281.552 57.572 281.636 57.3523L283.874 57.5C283.761 58.0379 283.528 58.5076 283.175 58.9091C282.827 59.3068 282.376 59.6174 281.823 59.8409C281.274 60.0606 280.639 60.1705 279.92 60.1705ZM292.766 53.7614L290.55 53.8977C290.513 53.7083 290.431 53.5379 290.306 53.3864C290.181 53.2311 290.016 53.108 289.812 53.017C289.611 52.9223 289.371 52.875 289.09 52.875C288.715 52.875 288.399 52.9545 288.141 53.1136C287.884 53.2689 287.755 53.4773 287.755 53.7386C287.755 53.947 287.838 54.1231 288.005 54.267C288.172 54.411 288.458 54.5265 288.863 54.6136L290.442 54.9318C291.291 55.1061 291.924 55.3864 292.34 55.7727C292.757 56.1591 292.965 56.6667 292.965 57.2955C292.965 57.8674 292.797 58.3693 292.46 58.8011C292.126 59.233 291.668 59.5701 291.085 59.8125C290.505 60.0511 289.836 60.1705 289.079 60.1705C287.924 60.1705 287.003 59.9299 286.317 59.4489C285.636 58.964 285.236 58.3049 285.119 57.4716L287.499 57.3466C287.571 57.6989 287.746 57.9678 288.022 58.1534C288.299 58.3352 288.653 58.4261 289.085 58.4261C289.509 58.4261 289.85 58.3447 290.107 58.1818C290.369 58.0152 290.501 57.8011 290.505 57.5398C290.501 57.3201 290.408 57.1402 290.227 57C290.045 56.8561 289.764 56.7462 289.386 56.6705L287.874 56.3693C287.022 56.1989 286.388 55.9034 285.971 55.483C285.558 55.0625 285.352 54.5265 285.352 53.875C285.352 53.3144 285.503 52.8314 285.806 52.4261C286.113 52.0208 286.543 51.7083 287.096 51.4886C287.653 51.2689 288.304 51.1591 289.05 51.1591C290.153 51.1591 291.02 51.392 291.653 51.858C292.289 52.3239 292.66 52.9583 292.766 53.7614ZM301.751 53.7614L299.535 53.8977C299.497 53.7083 299.415 53.5379 299.29 53.3864C299.165 53.2311 299.001 53.108 298.796 53.017C298.595 52.9223 298.355 52.875 298.075 52.875C297.7 52.875 297.383 52.9545 297.126 53.1136C296.868 53.2689 296.739 53.4773 296.739 53.7386C296.739 53.947 296.823 54.1231 296.989 54.267C297.156 54.411 297.442 54.5265 297.847 54.6136L299.427 54.9318C300.275 55.1061 300.908 55.3864 301.325 55.7727C301.741 56.1591 301.95 56.6667 301.95 57.2955C301.95 57.8674 301.781 58.3693 301.444 58.8011C301.111 59.233 300.652 59.5701 300.069 59.8125C299.489 60.0511 298.821 60.1705 298.063 60.1705C296.908 60.1705 295.987 59.9299 295.302 59.4489C294.62 58.964 294.22 58.3049 294.103 57.4716L296.484 57.3466C296.556 57.6989 296.73 57.9678 297.006 58.1534C297.283 58.3352 297.637 58.4261 298.069 58.4261C298.493 58.4261 298.834 58.3447 299.092 58.1818C299.353 58.0152 299.486 57.8011 299.489 57.5398C299.486 57.3201 299.393 57.1402 299.211 57C299.029 56.8561 298.749 56.7462 298.37 56.6705L296.859 56.3693C296.006 56.1989 295.372 55.9034 294.955 55.483C294.542 55.0625 294.336 54.5265 294.336 53.875C294.336 53.3144 294.487 52.8314 294.79 52.4261C295.097 52.0208 295.527 51.7083 296.08 51.4886C296.637 51.2689 297.289 51.1591 298.035 51.1591C299.137 51.1591 300.004 51.392 300.637 51.858C301.273 52.3239 301.645 52.9583 301.751 53.7614Z" fill="white"/>
<rect x="20" y="89" width="131" height="168" rx="10" fill="#121214"/>
<rect x="369" y="89" width="131" height="168" rx="10" fill="#121214"/>
<rect x="193" y="89" width="131" height="168" rx="10" fill="#121214"/>
<g filter="url(#filter0_d_0_1)">
<path d="M63.8729 51.392V49.3636H73.4297V51.392H69.8672V61H67.4354V51.392H63.8729ZM77.6357 61.1705C76.7531 61.1705 75.9898 60.983 75.3459 60.608C74.7057 60.2292 74.2114 59.7027 73.8629 59.0284C73.5144 58.3504 73.3402 57.5644 73.3402 56.6705C73.3402 55.7689 73.5144 54.9811 73.8629 54.3068C74.2114 53.6288 74.7057 53.1023 75.3459 52.7273C75.9898 52.3485 76.7531 52.1591 77.6357 52.1591C78.5182 52.1591 79.2796 52.3485 79.9197 52.7273C80.5637 53.1023 81.0599 53.6288 81.4084 54.3068C81.7569 54.9811 81.9311 55.7689 81.9311 56.6705C81.9311 57.5644 81.7569 58.3504 81.4084 59.0284C81.0599 59.7027 80.5637 60.2292 79.9197 60.608C79.2796 60.983 78.5182 61.1705 77.6357 61.1705ZM77.647 59.2955C78.0485 59.2955 78.3838 59.1818 78.6527 58.9545C78.9216 58.7235 79.1243 58.4091 79.2607 58.0114C79.4008 57.6136 79.4709 57.161 79.4709 56.6534C79.4709 56.1458 79.4008 55.6932 79.2607 55.2955C79.1243 54.8977 78.9216 54.5833 78.6527 54.3523C78.3838 54.1212 78.0485 54.0057 77.647 54.0057C77.2417 54.0057 76.9008 54.1212 76.6243 54.3523C76.3516 54.5833 76.1451 54.8977 76.005 55.2955C75.8686 55.6932 75.8004 56.1458 75.8004 56.6534C75.8004 57.161 75.8686 57.6136 76.005 58.0114C76.1451 58.4091 76.3516 58.7235 76.6243 58.9545C76.9008 59.1818 77.2417 59.2955 77.647 59.2955ZM91.3786 61H87.2536V49.3636H91.4126C92.5831 49.3636 93.5907 49.5966 94.4354 50.0625C95.2801 50.5246 95.9297 51.1894 96.3842 52.0568C96.8426 52.9242 97.0717 53.9621 97.0717 55.1705C97.0717 56.3826 96.8426 57.4242 96.3842 58.2955C95.9297 59.1667 95.2763 59.8352 94.424 60.3011C93.5755 60.767 92.5604 61 91.3786 61ZM89.7138 58.892H91.2763C92.0036 58.892 92.6153 58.7633 93.1115 58.5057C93.6115 58.2443 93.9865 57.8409 94.2365 57.2955C94.4903 56.7462 94.6172 56.0379 94.6172 55.1705C94.6172 54.3106 94.4903 53.608 94.2365 53.0625C93.9865 52.517 93.6134 52.1155 93.1172 51.858C92.621 51.6004 92.0092 51.4716 91.282 51.4716H89.7138V58.892ZM102.792 61.1705C101.909 61.1705 101.146 60.983 100.502 60.608C99.862 60.2292 99.3677 59.7027 99.0192 59.0284C98.6707 58.3504 98.4964 57.5644 98.4964 56.6705C98.4964 55.7689 98.6707 54.9811 99.0192 54.3068C99.3677 53.6288 99.862 53.1023 100.502 52.7273C101.146 52.3485 101.909 52.1591 102.792 52.1591C103.674 52.1591 104.436 52.3485 105.076 52.7273C105.72 53.1023 106.216 53.6288 106.565 54.3068C106.913 54.9811 107.087 55.7689 107.087 56.6705C107.087 57.5644 106.913 58.3504 106.565 59.0284C106.216 59.7027 105.72 60.2292 105.076 60.608C104.436 60.983 103.674 61.1705 102.792 61.1705ZM102.803 59.2955C103.205 59.2955 103.54 59.1818 103.809 58.9545C104.078 58.7235 104.281 58.4091 104.417 58.0114C104.557 57.6136 104.627 57.161 104.627 56.6534C104.627 56.1458 104.557 55.6932 104.417 55.2955C104.281 54.8977 104.078 54.5833 103.809 54.3523C103.54 54.1212 103.205 54.0057 102.803 54.0057C102.398 54.0057 102.057 54.1212 101.781 54.3523C101.508 54.5833 101.301 54.8977 101.161 55.2955C101.025 55.6932 100.957 56.1458 100.957 56.6534C100.957 57.161 101.025 57.6136 101.161 58.0114C101.301 58.4091 101.508 58.7235 101.781 58.9545C102.057 59.1818 102.398 59.2955 102.803 59.2955Z" fill="white"/>
</g>
<defs>
<filter id="filter0_d_0_1" x="59.8729" y="49.3636" width="51.2145" height="19.8068" filterUnits="userSpaceOnUse" color-interpolation-filters="sRGB">
<feFlood flood-opacity="0" result="BackgroundImageFix"/>
<feColorMatrix in="SourceAlpha" type="matrix" values="0 0 0 0 0 0 0 0 0 0 0 0 0 0 0 0 0 0 127 0" result="hardAlpha"/>
<feOffset dy="4"/>
<feGaussianBlur stdDeviation="2"/>
<feComposite in2="hardAlpha" operator="out"/>
<feColorMatrix type="matrix" values="0 0 0 0 0 0 0 0 0 0 0 0 0 0 0 0 0 0 0.25 0"/>
<feBlend mode="normal" in2="BackgroundImageFix" result="effect1_dropShadow_0_1"/>
<feBlend mode="normal" in="SourceGraphic" in2="effect1_dropShadow_0_1" result="shape"/>
</filter>
</defs>
</svg>
