<svg width="194" height="30" viewBox="0 0 194 30" fill="none" xmlns="http://www.w3.org/2000/svg">
<path d="M83.608 7.76V6.432H86.616V18H85.144V7.76H83.608ZM89.117 12.096C89.117 10.2613 89.4157 8.832 90.013 7.808C90.6103 6.77333 91.6557 6.256 93.149 6.256C94.6317 6.256 95.6717 6.77333 96.269 7.808C96.8663 8.832 97.165 10.2613 97.165 12.096C97.165 13.9627 96.8663 15.4133 96.269 16.448C95.6717 17.4827 94.6317 18 93.149 18C91.6557 18 90.6103 17.4827 90.013 16.448C89.4157 15.4133 89.117 13.9627 89.117 12.096ZM95.725 12.096C95.725 11.168 95.661 10.384 95.533 9.744C95.4157 9.09333 95.165 8.57067 94.781 8.176C94.4077 7.78133 93.8637 7.584 93.149 7.584C92.4237 7.584 91.869 7.78133 91.485 8.176C91.1117 8.57067 90.861 9.09333 90.733 9.744C90.6157 10.384 90.557 11.168 90.557 12.096C90.557 13.056 90.6157 13.8613 90.733 14.512C90.861 15.1627 91.1117 15.6853 91.485 16.08C91.869 16.4747 92.4237 16.672 93.149 16.672C93.8637 16.672 94.4077 16.4747 94.781 16.08C95.165 15.6853 95.4157 15.1627 95.533 14.512C95.661 13.8613 95.725 13.056 95.725 12.096ZM99.1639 12.096C99.1639 10.2613 99.4625 8.832 100.06 7.808C100.657 6.77333 101.703 6.256 103.196 6.256C104.679 6.256 105.719 6.77333 106.316 7.808C106.913 8.832 107.212 10.2613 107.212 12.096C107.212 13.9627 106.913 15.4133 106.316 16.448C105.719 17.4827 104.679 18 103.196 18C101.703 18 100.657 17.4827 100.06 16.448C99.4625 15.4133 99.1639 13.9627 99.1639 12.096ZM105.772 12.096C105.772 11.168 105.708 10.384 105.58 9.744C105.463 9.09333 105.212 8.57067 104.828 8.176C104.455 7.78133 103.911 7.584 103.196 7.584C102.471 7.584 101.916 7.78133 101.532 8.176C101.159 8.57067 100.908 9.09333 100.78 9.744C100.663 10.384 100.604 11.168 100.604 12.096C100.604 13.056 100.663 13.8613 100.78 14.512C100.908 15.1627 101.159 15.6853 101.532 16.08C101.916 16.4747 102.471 16.672 103.196 16.672C103.911 16.672 104.455 16.4747 104.828 16.08C105.212 15.6853 105.463 15.1627 105.58 14.512C105.708 13.8613 105.772 13.056 105.772 12.096ZM108.891 9.04C108.891 8.31467 109.109 7.73867 109.547 7.312C109.984 6.87467 110.544 6.656 111.227 6.656C111.909 6.656 112.469 6.87467 112.907 7.312C113.344 7.73867 113.563 8.31467 113.563 9.04C113.563 9.776 113.344 10.3627 112.907 10.8C112.469 11.2267 111.909 11.44 111.227 11.44C110.544 11.44 109.984 11.2267 109.547 10.8C109.109 10.3627 108.891 9.776 108.891 9.04ZM118.235 6.832L111.755 18H110.315L116.795 6.832H118.235ZM111.227 7.552C110.864 7.552 110.576 7.68 110.363 7.936C110.16 8.18133 110.059 8.54933 110.059 9.04C110.059 9.53067 110.16 9.904 110.363 10.16C110.576 10.416 110.864 10.544 111.227 10.544C111.589 10.544 111.877 10.416 112.091 10.16C112.304 9.89333 112.411 9.52 112.411 9.04C112.411 8.54933 112.304 8.18133 112.091 7.936C111.877 7.68 111.589 7.552 111.227 7.552ZM115.019 15.792C115.019 15.056 115.237 14.4747 115.675 14.048C116.112 13.6107 116.672 13.392 117.355 13.392C118.037 13.392 118.592 13.6107 119.019 14.048C119.456 14.4747 119.675 15.056 119.675 15.792C119.675 16.5173 119.456 17.0987 119.019 17.536C118.592 17.9733 118.037 18.192 117.355 18.192C116.672 18.192 116.112 17.9787 115.675 17.552C115.237 17.1147 115.019 16.528 115.019 15.792ZM117.339 14.304C116.976 14.304 116.688 14.432 116.475 14.688C116.261 14.9333 116.155 15.3013 116.155 15.792C116.155 16.272 116.261 16.64 116.475 16.896C116.688 17.1413 116.976 17.264 117.339 17.264C117.701 17.264 117.989 17.1413 118.203 16.896C118.416 16.64 118.523 16.272 118.523 15.792C118.523 15.3013 118.416 14.9333 118.203 14.688C117.989 14.432 117.701 14.304 117.339 14.304ZM129.473 9.088C130.23 9.088 130.892 9.25333 131.457 9.584C132.033 9.91467 132.46 10.3307 132.737 10.832V9.232H134.209V18.192C134.209 18.992 134.038 19.7013 133.697 20.32C133.356 20.9493 132.865 21.44 132.225 21.792C131.596 22.144 130.86 22.32 130.017 22.32C128.865 22.32 127.905 22.048 127.137 21.504C126.369 20.96 125.916 20.2187 125.777 19.28H127.217C127.377 19.8133 127.708 20.24 128.209 20.56C128.71 20.8907 129.313 21.056 130.017 21.056C130.817 21.056 131.468 20.8053 131.969 20.304C132.481 19.8027 132.737 19.0987 132.737 18.192V16.352C132.449 16.864 132.022 17.2907 131.457 17.632C130.892 17.9733 130.23 18.144 129.473 18.144C128.694 18.144 127.985 17.952 127.345 17.568C126.716 17.184 126.22 16.6453 125.857 15.952C125.494 15.2587 125.313 14.4693 125.313 13.584C125.313 12.688 125.494 11.904 125.857 11.232C126.22 10.5493 126.716 10.0213 127.345 9.648C127.985 9.27467 128.694 9.088 129.473 9.088ZM132.737 13.6C132.737 12.9387 132.604 12.3627 132.337 11.872C132.07 11.3813 131.708 11.008 131.249 10.752C130.801 10.4853 130.305 10.352 129.761 10.352C129.217 10.352 128.721 10.48 128.273 10.736C127.825 10.992 127.468 11.3653 127.201 11.856C126.934 12.3467 126.801 12.9227 126.801 13.584C126.801 14.256 126.934 14.8427 127.201 15.344C127.468 15.8347 127.825 16.2133 128.273 16.48C128.721 16.736 129.217 16.864 129.761 16.864C130.305 16.864 130.801 16.736 131.249 16.48C131.708 16.2133 132.07 15.8347 132.337 15.344C132.604 14.8427 132.737 14.2613 132.737 13.6ZM138.126 10.656C138.382 10.1547 138.744 9.76533 139.214 9.488C139.694 9.21067 140.275 9.072 140.958 9.072V10.576H140.574C138.942 10.576 138.126 11.4613 138.126 13.232V18H136.67V9.232H138.126V10.656ZM142.094 13.584C142.094 12.688 142.276 11.904 142.638 11.232C143.001 10.5493 143.497 10.0213 144.126 9.648C144.766 9.27467 145.476 9.088 146.254 9.088C147.022 9.088 147.689 9.25333 148.254 9.584C148.82 9.91467 149.241 10.3307 149.518 10.832V9.232H150.99V18H149.518V16.368C149.23 16.88 148.798 17.3067 148.222 17.648C147.657 17.9787 146.996 18.144 146.238 18.144C145.46 18.144 144.756 17.952 144.126 17.568C143.497 17.184 143.001 16.6453 142.638 15.952C142.276 15.2587 142.094 14.4693 142.094 13.584ZM149.518 13.6C149.518 12.9387 149.385 12.3627 149.118 11.872C148.852 11.3813 148.489 11.008 148.03 10.752C147.582 10.4853 147.086 10.352 146.542 10.352C145.998 10.352 145.502 10.48 145.054 10.736C144.606 10.992 144.249 11.3653 143.982 11.856C143.716 12.3467 143.582 12.9227 143.582 13.584C143.582 14.256 143.716 14.8427 143.982 15.344C144.249 15.8347 144.606 16.2133 145.054 16.48C145.502 16.736 145.998 16.864 146.542 16.864C147.086 16.864 147.582 16.736 148.03 16.48C148.489 16.2133 148.852 15.8347 149.118 15.344C149.385 14.8427 149.518 14.2613 149.518 13.6ZM155.227 10.432V15.6C155.227 16.0267 155.317 16.3307 155.499 16.512C155.68 16.6827 155.995 16.768 156.443 16.768H157.515V18H156.203C155.392 18 154.784 17.8133 154.379 17.44C153.973 17.0667 153.771 16.4533 153.771 15.6V10.432H152.635V9.232H153.771V7.024H155.227V9.232H157.515V10.432H155.227ZM167.055 9.232V18H165.599V16.704C165.322 17.152 164.932 17.504 164.431 17.76C163.94 18.0053 163.396 18.128 162.799 18.128C162.116 18.128 161.503 17.9893 160.959 17.712C160.415 17.424 159.983 16.9973 159.663 16.432C159.354 15.8667 159.199 15.1787 159.199 14.368V9.232H160.639V14.176C160.639 15.04 160.858 15.7067 161.295 16.176C161.732 16.6347 162.33 16.864 163.087 16.864C163.866 16.864 164.479 16.624 164.927 16.144C165.375 15.664 165.599 14.9653 165.599 14.048V9.232H167.055ZM170.265 7.808C169.988 7.808 169.753 7.712 169.561 7.52C169.369 7.328 169.273 7.09333 169.273 6.816C169.273 6.53867 169.369 6.304 169.561 6.112C169.753 5.92 169.988 5.824 170.265 5.824C170.532 5.824 170.756 5.92 170.937 6.112C171.129 6.304 171.225 6.53867 171.225 6.816C171.225 7.09333 171.129 7.328 170.937 7.52C170.756 7.712 170.532 7.808 170.265 7.808ZM170.969 9.232V18H169.513V9.232H170.969ZM175.227 10.432V15.6C175.227 16.0267 175.317 16.3307 175.499 16.512C175.68 16.6827 175.995 16.768 176.443 16.768H177.515V18H176.203C175.392 18 174.784 17.8133 174.379 17.44C173.973 17.0667 173.771 16.4533 173.771 15.6V10.432H172.635V9.232H173.771V7.024H175.227V9.232H177.515V10.432H175.227ZM183.103 18.144C182.282 18.144 181.535 17.9573 180.863 17.584C180.202 17.2107 179.679 16.6827 179.295 16C178.922 15.3067 178.735 14.5067 178.735 13.6C178.735 12.704 178.927 11.9147 179.311 11.232C179.706 10.5387 180.239 10.0107 180.911 9.648C181.583 9.27467 182.335 9.088 183.167 9.088C183.999 9.088 184.751 9.27467 185.423 9.648C186.095 10.0107 186.623 10.5333 187.007 11.216C187.402 11.8987 187.599 12.6933 187.599 13.6C187.599 14.5067 187.396 15.3067 186.991 16C186.596 16.6827 186.058 17.2107 185.375 17.584C184.692 17.9573 183.935 18.144 183.103 18.144ZM183.103 16.864C183.626 16.864 184.116 16.7413 184.575 16.496C185.034 16.2507 185.402 15.8827 185.679 15.392C185.967 14.9013 186.111 14.304 186.111 13.6C186.111 12.896 185.972 12.2987 185.695 11.808C185.418 11.3173 185.055 10.9547 184.607 10.72C184.159 10.4747 183.674 10.352 183.151 10.352C182.618 10.352 182.127 10.4747 181.679 10.72C181.242 10.9547 180.89 11.3173 180.623 11.808C180.356 12.2987 180.223 12.896 180.223 13.6C180.223 14.3147 180.351 14.9173 180.607 15.408C180.874 15.8987 181.226 16.2667 181.663 16.512C182.1 16.7467 182.58 16.864 183.103 16.864ZM191.401 6.848L191.225 14.848H190.009L189.833 6.848H191.401ZM190.681 18.096C190.404 18.096 190.169 18 189.977 17.808C189.785 17.616 189.689 17.3813 189.689 17.104C189.689 16.8267 189.785 16.592 189.977 16.4C190.169 16.208 190.404 16.112 190.681 16.112C190.948 16.112 191.172 16.208 191.353 16.4C191.545 16.592 191.641 16.8267 191.641 17.104C191.641 17.3813 191.545 17.616 191.353 17.808C191.172 18 190.948 18.096 190.681 18.096Z" fill="#E4E4E4"/>
<path d="M0.515726 24.0324C0.291495 24.672 0.628251 25.3723 1.26789 25.5966L11.6914 29.2506C12.331 29.4748 13.0314 29.1381 13.2556 28.4984C13.4798 27.8588 13.1431 27.1585 12.5034 26.9343L3.23808 23.6862L6.48612 14.4209C6.71035 13.7812 6.37359 13.0809 5.73396 12.8567C5.09432 12.6324 4.39401 12.9692 4.16978 13.6088L0.515726 24.0324ZM69.9905 16.2706C69.4325 15.1775 69.4325 15.1775 69.4323 15.1776C69.432 15.1777 69.4317 15.1779 69.4312 15.1782C69.4301 15.1787 69.4285 15.1795 69.4262 15.1807C69.4218 15.183 69.415 15.1864 69.4058 15.1911C69.3876 15.2003 69.3601 15.2143 69.3237 15.2327C69.2509 15.2696 69.1423 15.3244 69.0008 15.3954C68.7177 15.5375 68.3026 15.7446 67.7764 16.0036C66.7239 16.5215 65.2279 17.2465 63.4568 18.0733C59.91 19.7289 55.2786 21.7841 50.9011 23.4036C48.7119 24.2135 46.6035 24.908 44.7368 25.3892C42.8502 25.8756 41.2914 26.1224 40.1716 26.0892C38.9654 26.0534 38.7738 25.7269 38.7456 25.66C38.7121 25.5805 38.6585 25.3626 38.7628 24.9003C38.867 24.4386 39.1113 23.8159 39.5641 23.0055L38.4928 22.4068L37.4215 21.8081C36.9027 22.7364 36.5429 23.5871 36.3685 24.3598C36.1942 25.132 36.1872 25.9097 36.4837 26.6131C37.1154 28.1123 38.7166 28.5017 40.0989 28.5427C41.5677 28.5862 43.3931 28.2705 45.3496 27.7661C47.3257 27.2566 49.5189 26.5321 51.7527 25.7056C56.2212 24.0525 60.9216 21.9655 64.4951 20.2974C66.2841 19.4623 67.7954 18.7298 68.8602 18.2059C69.3926 17.9439 69.8135 17.7339 70.1019 17.5891C70.2461 17.5168 70.3572 17.4607 70.4325 17.4226C70.4701 17.4035 70.4988 17.3889 70.5183 17.379C70.528 17.3741 70.5354 17.3703 70.5404 17.3678C70.5429 17.3665 70.5449 17.3655 70.5462 17.3648C70.5469 17.3645 70.5474 17.3642 70.5478 17.364C70.5482 17.3638 70.5484 17.3637 69.9905 16.2706ZM38.4928 22.4068L39.5641 23.0055C41.0918 20.2717 41.8086 17.9978 41.566 16.1783C41.4391 15.2274 41.0506 14.4115 40.4127 13.7701C39.7886 13.1425 38.9887 12.7441 38.1254 12.501C36.4293 12.0232 34.2567 12.0804 31.9311 12.4162C29.5756 12.7562 26.9311 13.403 24.2244 14.209C18.8093 15.8217 13.0358 18.1052 8.63104 19.9775C6.42521 20.9151 4.55558 21.7525 3.23661 22.356C2.57702 22.6577 2.05484 22.9011 1.69687 23.0694C1.51788 23.1535 1.37992 23.2189 1.28634 23.2634C1.23954 23.2857 1.20385 23.3027 1.17965 23.3143C1.16756 23.3201 1.15835 23.3245 1.15206 23.3275C1.14891 23.329 1.1465 23.3302 1.14483 23.331C1.144 23.3314 1.14329 23.3317 1.14288 23.3319C1.14236 23.3322 1.14203 23.3323 1.67389 24.4383C2.20576 25.5444 2.2058 25.5444 2.20603 25.5443C2.20636 25.5441 2.20677 25.5439 2.20742 25.5436C2.20871 25.543 2.21074 25.542 2.2135 25.5407C2.21902 25.5381 2.22747 25.534 2.23878 25.5286C2.2614 25.5178 2.29551 25.5015 2.34069 25.48C2.43102 25.437 2.5656 25.3733 2.74107 25.2908C3.09204 25.1258 3.60652 24.886 4.2578 24.588C5.56057 23.9919 7.40954 23.1638 9.59118 22.2364C13.9614 20.3788 19.6383 18.1359 24.925 16.5615C27.5693 15.774 30.0886 15.1622 32.2818 14.8455C34.5048 14.5246 36.2656 14.5271 37.4599 14.8635C38.0418 15.0275 38.4262 15.2534 38.6722 15.5008C38.9045 15.7344 39.0717 16.0441 39.1329 16.5028C39.2663 17.5024 38.8881 19.1837 37.4215 21.8081L38.4928 22.4068Z" fill="#8257E5"/>
</svg>
